<svg id="Capa_1" enable-background="new 0 0 510.783 510.783" height="512" viewBox="0 0 510.783 510.783" width="512" xmlns="http://www.w3.org/2000/svg" xmlns:xlink="http://www.w3.org/1999/xlink"><linearGradient id="SVGID_1_" gradientUnits="userSpaceOnUse" x1="159.945" x2="350.864" y1="350.886" y2="159.968"><stop offset="0" stop-color="#fd5900"/><stop offset="1" stop-color="#ffde00"/></linearGradient><linearGradient id="SVGID_2_" gradientUnits="userSpaceOnUse" x1="202.064" x2="308.13" y1="308.153" y2="202.087"><stop offset="0" stop-color="#ffe59a"/><stop offset="1" stop-color="#ffffd5"/></linearGradient><path d="m345.727 485.665c-60.383-27.969-128.209-77.206-186.088-135.085-57.847-57.846-106.975-125.567-134.787-185.799-20.856-45.167-40.746-110.655-5.747-145.654 34.998-35 100.493-15.106 145.654 5.748 60.231 27.812 127.953 76.94 185.798 134.786 113.79 113.79 200.11 273.103 141.147 332.065-35.046 35.046-100.826 14.853-145.977-6.061z" fill="url(#SVGID_1_)"/><g><g><path d="m354.928 254.294c-.422-7.634-6.518-13.73-14.151-14.151-1.91-.105-47.221-2.266-75.072 25.584-27.852 27.851-25.69 73.157-25.584 75.073.421 7.634 6.517 13.73 14.151 14.151 23.942 1.341 56.068-6.579 75.073-25.584 27.849-27.852 25.688-73.158 25.583-75.073zm-84.854-84.853c-.421-7.634-6.517-13.73-14.151-14.151-1.914-.105-47.221-2.267-75.072 25.584s-25.689 73.157-25.583 75.072c.421 7.634 6.517 13.73 14.151 14.151 24.137 1.332 56.14-6.652 75.073-25.584 27.85-27.851 25.688-73.157 25.582-75.072zm157.886 175.175c-1.515-3.497-4.304-6.285-7.801-7.8-1.591-.689-39.308-16.531-69.603 13.764s-14.453 68.012-13.764 69.603c1.515 3.497 4.304 6.285 7.801 7.8.821.356 11.269 4.75 25.356 4.75 13.198 0 29.593-3.86 44.246-18.514 30.296-30.295 14.455-68.012 13.765-69.603zm-254.558-254.558c-1.515-3.497-4.304-6.286-7.801-7.801-1.59-.689-39.307-16.531-69.603 13.764-30.295 30.295-14.453 68.012-13.764 69.603 1.515 3.497 4.304 6.285 7.8 7.8.821.356 11.269 4.75 25.356 4.75 13.198 0 29.593-3.86 44.246-18.514 30.297-30.294 14.455-68.011 13.766-69.602z" fill="url(#SVGID_2_)"/></g></g></svg>