<svg id="Capa_1" enable-background="new 0 0 512 512" height="512" viewBox="0 0 512 512" width="512" xmlns="http://www.w3.org/2000/svg" xmlns:xlink="http://www.w3.org/1999/xlink"><linearGradient id="SVGID_1_" gradientUnits="userSpaceOnUse" x1="256" x2="256" y1="466" y2="167.199"><stop offset="0" stop-color="#fd5900"/><stop offset="1" stop-color="#ffde00"/></linearGradient><linearGradient id="SVGID_2_" gradientUnits="userSpaceOnUse" x1="260.05" x2="260.05" y1="406" y2="46"><stop offset="0" stop-color="#ffe59a"/><stop offset="1" stop-color="#ffffd5"/></linearGradient><g><g><g><path d="m511.399 197.199-254.399-30-248.299 30c-5.401 2.701-8.701 7.801-8.701 13.801v90c0 8.399 6.599 15 15 15s15 6.599 15 15c0 8.399-6.599 15-15 15s-15 6.599-15 15v90c0 8.399 6.599 15 15 15h182c8.401 0 15-6.601 15-15 0-8.401 6.599-15 15-15s15 6.599 15 15c0 8.399 6.599 15 15 15h240c8.401 0 15-6.601 15-15v-240c0-4.801-.3-9.3-.601-13.801z" fill="url(#SVGID_1_)"/></g></g><g><g><path d="m392 256c-33.076 0-60 26.909-60 60s26.924 60 60 60 60-26.909 60-60-26.924-60-60-60zm-255 0c-24.814 0-45 20.186-45 45s20.186 45 45 45 45-20.186 45-45-20.186-45-45-45zm120 30c-8.284 0-15 6.716-15 15s6.716 15 15 15 15-6.716 15-15-6.716-15-15-15zm-150 90c-8.284 0-15 6.716-15 15s6.716 15 15 15 15-6.716 15-15-6.716-15-15-15zm210 0c-8.284 0-15 6.716-15 15s6.716 15 15 15 15-6.716 15-15-6.716-15-15-15zm30-330c-2.102 0-4.2.599-6.299 1.199l-332 150h502.698c-7.199-84.6-78.299-151.199-164.399-151.199z" fill="url(#SVGID_2_)"/></g></g></g></svg>