<svg id="Capa_1" enable-background="new 0 0 512 512" height="512" viewBox="0 0 512 512" width="512" xmlns="http://www.w3.org/2000/svg" xmlns:xlink="http://www.w3.org/1999/xlink"><linearGradient id="SVGID_1_" gradientUnits="userSpaceOnUse" x1="256" x2="256" y1="347" y2="0"><stop offset="0" stop-color="#addcff"/><stop offset=".5028" stop-color="#eaf6ff"/><stop offset="1" stop-color="#eaf6ff"/></linearGradient><linearGradient id="SVGID_2_" gradientUnits="userSpaceOnUse" x1="256" x2="256" y1="512" y2="65.7"><stop offset="0" stop-color="#5558ff"/><stop offset="1" stop-color="#00c0ff"/></linearGradient><g><g><g><path d="m279.146 94.839 21.854-29.139v-50.7c0-8.401-6.599-15-15-15h-60c-8.401 0-15 6.599-15 15v50.7l21.854 29.139-81.854 70.161v92l105 90 105-90v-92z" fill="url(#SVGID_1_)"/></g></g><g><g><path d="m302.8 66.599-1.8-.899h-90l-1.8.899c-36 18.001-58.2 54.001-58.2 93.9v4.501h210v-4.501c0-39.898-22.2-75.899-58.2-93.9zm-151.8 220.401c0 11.4 4.2 21.899 11.4 30-7.2 8.101-11.4 18.6-11.4 30s4.2 21.899 11.4 30c-7.2 8.101-11.4 18.6-11.4 30s4.2 21.899 11.4 30c-7.2 8.101-11.4 18.6-11.4 30 0 24.901 20.099 45 45 45h120c24.901 0 45-20.099 45-45 0-11.4-4.2-21.899-11.4-30 7.2-8.101 11.4-18.6 11.4-30s-4.2-21.899-11.4-30c7.2-8.101 11.4-18.6 11.4-30s-4.2-21.899-11.4-30c7.2-8.101 11.4-18.6 11.4-30v-30h-210z" fill="url(#SVGID_2_)"/></g></g></g></svg>