<svg id="Capa_1" enable-background="new 0 0 512 512" height="512" viewBox="0 0 512 512" width="512" xmlns="http://www.w3.org/2000/svg" xmlns:xlink="http://www.w3.org/1999/xlink"><linearGradient id="SVGID_1_" gradientUnits="userSpaceOnUse" x1="256" x2="256" y1="406" y2="91"><stop offset="0" stop-color="#fd5900"/><stop offset="1" stop-color="#ffde00"/></linearGradient><linearGradient id="SVGID_2_" gradientUnits="userSpaceOnUse" x1="256" x2="256" y1="421" y2="151"><stop offset="0" stop-color="#ffe59a"/><stop offset="1" stop-color="#ffffd5"/></linearGradient><g><g><g><path d="m210 166c0-8.291-6.709-15-15-15-24.814 0-45-20.186-45-45 0-8.291-6.709-15-15-15s-15 6.709-15 15c0 24.507 11.814 46.305 30.048 60h-120.048v240h452v-240z" fill="url(#SVGID_1_)"/></g></g><g><g><path d="m383.76 255.106c4.746-3.413 7.061-9.272 5.977-15-1.113-5.742-5.42-10.327-11.104-11.733-8.903-2.219-52.057-9.382-93.717 35.035-14.865-15.14-42.133-37.408-74.916-37.408-48.398 0-85.459 48.94-87.012 51.035-3.984 5.317-3.984 12.612 0 17.93 1.553 2.095 38.614 51.035 87.012 51.035 32.563 0 59.685-21.971 74.623-37.106 30.504 32.707 67.368 41.464 94.01 34.733 5.684-1.421 10.02-5.991 11.104-11.733s-1.23-11.587-5.977-15c-10.078-7.236-15.879-18.501-15.879-30.894s5.801-23.657 15.879-30.894zm-368.76-74.106h482c8.291 0 15-6.709 15-15s-6.709-15-15-15h-482c-8.291 0-15 6.709-15 15s6.709 15 15 15zm482 210h-482c-8.291 0-15 6.709-15 15s6.709 15 15 15h482c8.291 0 15-6.709 15-15s-6.709-15-15-15z" fill="url(#SVGID_2_)"/></g></g></g></svg>