<svg id="Capa_1" enable-background="new 0 0 512 512" height="512" viewBox="0 0 512 512" width="512" xmlns="http://www.w3.org/2000/svg" xmlns:xlink="http://www.w3.org/1999/xlink"><linearGradient id="SVGID_1_" gradientUnits="userSpaceOnUse" x1="271" x2="271" y1="212" y2="0"><stop offset="0" stop-color="#ffc2cc"/><stop offset="1" stop-color="#fff2f4"/></linearGradient><linearGradient id="SVGID_2_" gradientUnits="userSpaceOnUse" x1="256" x2="256" y1="512" y2="152.48"><stop offset="0" stop-color="#fd3a84"/><stop offset="1" stop-color="#ffa68d"/></linearGradient><g><g><g><path d="m376 0h-15c-43.185 0-80.782 23.13-101.922 57.444-17.423-33.929-52.39-57.444-93.078-57.444-8.291 0-15 6.709-15 15s6.709 15 15 15c41.367 0 75 33.647 75 75v92c0 8.291 6.709 15 15 15s15-6.709 15-15v-62c66.182 0 120-53.833 120-120 0-8.291-6.709-15-15-15z" fill="url(#SVGID_1_)"/></g></g><g><g><path d="m364.398 159.515c-38.262-13.726-80.566-6.87-108.398 16.318-27.832-23.203-70.166-30.044-108.398-16.318-54.229 19.423-86.602 72.685-86.602 142.485 0 111.87 67.09 210 143.584 210 21.826 0 38.496-10.752 51.416-23.086 12.92 12.334 29.59 23.086 51.416 23.086 76.494 0 143.584-98.13 143.584-210 0-69.8-32.373-123.062-86.602-142.485z" fill="url(#SVGID_2_)"/></g></g></g></svg>