<svg id="Capa_1" enable-background="new 0 0 512 512" height="512" viewBox="0 0 512 512" width="512" xmlns="http://www.w3.org/2000/svg" xmlns:xlink="http://www.w3.org/1999/xlink"><linearGradient id="SVGID_1_" gradientUnits="userSpaceOnUse" x1="278.362" x2="278.362" y1="512" y2="44.985"><stop offset="0" stop-color="#ffe59a"/><stop offset="1" stop-color="#ffffd5"/></linearGradient><linearGradient id="SVGID_2_" gradientUnits="userSpaceOnUse" x1="256" x2="256" y1="360" y2="0"><stop offset="0" stop-color="#fd5900"/><stop offset="1" stop-color="#ffde00"/></linearGradient><g><g><g><path d="m345.766 44.985c-16.289 0-29.473 12.7-30.029 28.608-2.285 42.393-13.828 79.893-31.699 102.935-10.166 13.184-7.764 32.168 5.361 42.319 11.594 9.007 30.144 8.878 42.07-5.361 25.225-32.593 41.338-82.559 44.238-137.344.53-15.931-11.321-30.522-29.941-31.157zm-44.766 335.018v-42.796c0-5.376-2.871-10.356-7.559-13.022s-10.43-2.651-15.059.103c-12.993 7.634-31.806 7.615-44.766 0-4.629-2.754-10.371-2.769-15.059-.103s-7.557 7.646-7.557 13.022v42.796c0 21.284-7.295 42.275-20.625 59.282-6.035 7.91-9.375 17.754-9.375 27.715 0 24.814 20.186 45 45 45 7.852 0 18.984-2.153 30-5.728 11.016 3.574 22.148 5.728 30 5.728 24.814 0 45-20.186 45-45 0-9.961-3.34-19.805-9.492-27.861-13.213-16.861-20.508-37.852-20.508-59.136z" fill="url(#SVGID_1_)"/></g></g><g><g><path d="m414.401 11.7c-1.501-6.901-7.8-11.7-14.7-11.7h-287.4c-6.901 0-13.2 4.799-14.702 11.7-4.499 20.1-6.599 41.401-6.599 63.3 0 66 21 128.101 57.299 170.4 13.5 16.199 30.3 38.101 38.701 63.9 6 18.3 16.199 31.8 31.5 40.8 13.801 8.1 27.9 9.9 37.5 9.9s23.699-1.8 37.8-9.901c15-9 25.199-22.5 31.5-41.1 8.101-25.499 24.901-47.401 38.403-63.3 36.298-42.598 57.297-104.699 57.297-170.699 0-21.899-2.102-43.2-6.599-63.3zm-94.801 192.6c-5.963 7.157-15.457 7.008-21 2.701-6.599-5.101-7.8-14.702-2.699-21.301 19.799-25.499 32.399-66.301 34.799-111.301.3-8.399 7.5-14.699 15.6-14.399 8.399.3 14.7 7.5 14.399 15.601-2.698 51.298-17.4 98.098-41.099 128.699z" fill="url(#SVGID_2_)"/></g></g></g></svg>