<svg id="Capa_1" enable-background="new 0 0 512 512" height="512" viewBox="0 0 512 512" width="512" xmlns="http://www.w3.org/2000/svg" xmlns:xlink="http://www.w3.org/1999/xlink"><linearGradient id="SVGID_1_" gradientUnits="userSpaceOnUse" x1="256" x2="256" y1="346" y2="0"><stop offset="0" stop-color="#ffbef9"/><stop offset="1" stop-color="#fff1ff"/></linearGradient><linearGradient id="SVGID_2_" gradientUnits="userSpaceOnUse" x1="226" x2="226" y1="512" y2="120"><stop offset="0" stop-color="#a93aff"/><stop offset="1" stop-color="#ff81ff"/></linearGradient><g><g><g><path d="m136 180c-8.401 0-15 6.599-15 15v96.1l60 54.9 150-35.101v-115.899c0-8.401-6.599-15-15-15h-15l-75-30-75 30zm210-150h-75v-15c0-8.291-6.709-15-15-15h-60c-8.291 0-15 6.709-15 15v60c0 8.291 6.709 15 15 15h15v45c0 8.291 6.709 15 15 15s15-6.709 15-15v-45h15c8.291 0 15-6.709 15-15v-15h75c8.262 0 15 6.724 15 15 0 8.291 6.709 15 15 15s15-6.709 15-15c0-24.814-20.186-45-45-45z" fill="url(#SVGID_1_)"/></g></g><g><g><path d="m301 135c0-8.401-6.599-15-15-15h-120c-8.401 0-15 6.599-15 15v45h150zm15 166s-22.5-15-45-15-45 15-45 15-22.5 15-45 15-45-15-45-15l-15-9.9v205.9c0 8.399 6.599 15 15 15h180c8.401 0 15-6.601 15-15v-186.101z" fill="url(#SVGID_2_)"/></g></g></g></svg>