<svg id="Capa_1" enable-background="new 0 0 512 512" height="512" viewBox="0 0 512 512" width="512" xmlns="http://www.w3.org/2000/svg" xmlns:xlink="http://www.w3.org/1999/xlink"><linearGradient id="SVGID_1_" gradientUnits="userSpaceOnUse" x1="256" x2="256" y1="512" y2="287.098"><stop offset="0" stop-color="#c3ffe8"/><stop offset=".9973" stop-color="#f0fff4"/></linearGradient><linearGradient id="SVGID_2_" gradientUnits="userSpaceOnUse" x1="256" x2="256" y1="330" y2="0"><stop offset="0" stop-color="#00b59c"/><stop offset="1" stop-color="#9cffac"/></linearGradient><g id="Cauliflower_2_"><g><g><path d="m388.275 289.981c-4.951-2.563-10.898-2.197-15.557 1.069-17.256 12.202-38.555 11.558-53.965-.703-4.57-3.574-10.693-4.248-15.879-1.758-5.186 2.505-8.467 7.749-8.467 13.506 0 3.896.41 8.174.908 12.671.41 3.911.879 8.027.879 12.231 0 11.924-5.156 17.344-23.027 34.248-5.098 4.819-10.84 10.239-17.168 16.641-6.328-6.387-12.07-11.821-17.168-16.626-17.871-16.89-23.027-22.28-23.027-33.955 0-3.94.439-7.881.85-11.704.498-4.673.938-9.214.938-13.506 0-5.757-3.281-11.001-8.467-13.506-5.186-2.52-11.338-1.787-15.879 1.758-15.439 12.275-36.709 12.92-53.965.703-4.629-3.267-10.605-3.633-15.557-1.069-4.98 2.578-8.115 7.705-8.115 13.315 0 32.109 16.553 71.294 32.08 91.816 21.475 28.609 33.311 66.087 33.311 101.888 0 8.291 6.709 15 15 15h120c8.291 0 15-6.709 15-15 0-36.401 11.514-72.942 33.252-101.844 15.586-20.566 32.139-59.751 32.139-91.86 0-5.61-3.135-10.737-8.116-13.315z" fill="url(#SVGID_1_)"/></g></g><g><g><path d="m480.736 173.027c-2.783-35.713-26.807-66.46-60.41-78.076-5.596-41.631-46.406-73.11-89.795-63.164-19.687-20.317-46.318-31.787-74.531-31.787s-54.844 11.47-74.531 31.787c-43.36-9.917-84.199 21.533-89.795 63.164-33.516 11.587-57.51 42.231-60.381 78.062-19.336 17.3-30.293 41.338-30.293 66.987 0 49.629 40.371 90 90 90 13.477 0 26.865-3.193 39.229-9.302 23.555 12.817 51.826 12.026 73.77-1.333 32.637 14.121 71.367 14.121 104.004 0 21.943 13.359 50.244 14.15 73.77 1.333 12.362 6.109 25.75 9.302 39.227 9.302 49.629 0 90-40.371 90-90 0-25.635-10.957-49.673-30.264-66.973z" fill="url(#SVGID_2_)"/></g></g></g></svg>